<svg width="100%" height="100%" viewBox="0 0 1440 900" xmlns="http://www.w3.org/2000/svg" fill="none">
    <defs>
        <linearGradient id="gradient" x1="0%" y1="50%" x2="100%" y2="50%">
            <stop offset="0%" stop-color="#FF705B" />
            <stop offset="100%" stop-color="#FFB457" />
        </linearGradient>
        <filter id="softBlur">
            <feGaussianBlur in="SourceGraphic" stdDeviation="20" />
        </filter>
        <filter id="darkenFilter">
            <feComponentTransfer>
                <feFuncR type="linear" slope="0.8"/>
                <feFuncG type="linear" slope="0.8"/>
                <feFuncB type="linear" slope="0.8"/>
            </feComponentTransfer>
        </filter>
    </defs>

    <g filter="url(#darkenFilter)">
        <!-- Fond en dégradé -->
        <rect width="1440" height="900" fill="url(#gradient)" />

        <!-- Formes abstraites floutées en bas avec remplissage sombre -->
        <g filter="url(#softBlur)">
            <path d="M200,300 Q500,100 800,300 T1400,300 L1440,900 L0,900 Z" fill="rgba(0,0,0,0.2)" />
            <path d="M0,500 Q400,350 800,500 T1440,500 L1440,900 L0,900 Z" fill="rgba(0,0,0,0.2)" />
            <path d="M400,700 Q700,550 1000,700 T1440,700 L1440,900 L0,900 Z" fill="rgba(0,0,0,0.2)" />
        </g>

        <!-- Contours nets pour structurer les formes -->
        <g stroke="white" stroke-width="1.5" opacity="0.6">
            <path d="M200,300 Q500,100 800,300 T1400,300" />
            <path d="M0,500 Q400,350 800,500 T1440,500" />
            <path d="M400,700 Q700,550 1000,700 T1440,700" />
        </g>
    </g>
</svg>
